G75*
%MOIN*%
%OFA0B0*%
%FSLAX24Y24*%
%IPPOS*%
%LPD*%
%AMOC8*
5,1,8,0,0,1.08239X$1,22.5*
%
%ADD10C,0.0000*%
D10*
X000220Y002000D02*
X000220Y021496D01*
X019590Y021496D01*
X019590Y002000D01*
X000220Y002000D01*
X000590Y003000D02*
X000592Y003050D01*
X000598Y003100D01*
X000608Y003149D01*
X000622Y003197D01*
X000639Y003244D01*
X000660Y003289D01*
X000685Y003333D01*
X000713Y003374D01*
X000745Y003413D01*
X000779Y003450D01*
X000816Y003484D01*
X000856Y003514D01*
X000898Y003541D01*
X000942Y003565D01*
X000988Y003586D01*
X001035Y003602D01*
X001083Y003615D01*
X001133Y003624D01*
X001182Y003629D01*
X001233Y003630D01*
X001283Y003627D01*
X001332Y003620D01*
X001381Y003609D01*
X001429Y003594D01*
X001475Y003576D01*
X001520Y003554D01*
X001563Y003528D01*
X001604Y003499D01*
X001643Y003467D01*
X001679Y003432D01*
X001711Y003394D01*
X001741Y003354D01*
X001768Y003311D01*
X001791Y003267D01*
X001810Y003221D01*
X001826Y003173D01*
X001838Y003124D01*
X001846Y003075D01*
X001850Y003025D01*
X001850Y002975D01*
X001846Y002925D01*
X001838Y002876D01*
X001826Y002827D01*
X001810Y002779D01*
X001791Y002733D01*
X001768Y002689D01*
X001741Y002646D01*
X001711Y002606D01*
X001679Y002568D01*
X001643Y002533D01*
X001604Y002501D01*
X001563Y002472D01*
X001520Y002446D01*
X001475Y002424D01*
X001429Y002406D01*
X001381Y002391D01*
X001332Y002380D01*
X001283Y002373D01*
X001233Y002370D01*
X001182Y002371D01*
X001133Y002376D01*
X001083Y002385D01*
X001035Y002398D01*
X000988Y002414D01*
X000942Y002435D01*
X000898Y002459D01*
X000856Y002486D01*
X000816Y002516D01*
X000779Y002550D01*
X000745Y002587D01*
X000713Y002626D01*
X000685Y002667D01*
X000660Y002711D01*
X000639Y002756D01*
X000622Y002803D01*
X000608Y002851D01*
X000598Y002900D01*
X000592Y002950D01*
X000590Y003000D01*
X000590Y020500D02*
X000592Y020550D01*
X000598Y020600D01*
X000608Y020649D01*
X000622Y020697D01*
X000639Y020744D01*
X000660Y020789D01*
X000685Y020833D01*
X000713Y020874D01*
X000745Y020913D01*
X000779Y020950D01*
X000816Y020984D01*
X000856Y021014D01*
X000898Y021041D01*
X000942Y021065D01*
X000988Y021086D01*
X001035Y021102D01*
X001083Y021115D01*
X001133Y021124D01*
X001182Y021129D01*
X001233Y021130D01*
X001283Y021127D01*
X001332Y021120D01*
X001381Y021109D01*
X001429Y021094D01*
X001475Y021076D01*
X001520Y021054D01*
X001563Y021028D01*
X001604Y020999D01*
X001643Y020967D01*
X001679Y020932D01*
X001711Y020894D01*
X001741Y020854D01*
X001768Y020811D01*
X001791Y020767D01*
X001810Y020721D01*
X001826Y020673D01*
X001838Y020624D01*
X001846Y020575D01*
X001850Y020525D01*
X001850Y020475D01*
X001846Y020425D01*
X001838Y020376D01*
X001826Y020327D01*
X001810Y020279D01*
X001791Y020233D01*
X001768Y020189D01*
X001741Y020146D01*
X001711Y020106D01*
X001679Y020068D01*
X001643Y020033D01*
X001604Y020001D01*
X001563Y019972D01*
X001520Y019946D01*
X001475Y019924D01*
X001429Y019906D01*
X001381Y019891D01*
X001332Y019880D01*
X001283Y019873D01*
X001233Y019870D01*
X001182Y019871D01*
X001133Y019876D01*
X001083Y019885D01*
X001035Y019898D01*
X000988Y019914D01*
X000942Y019935D01*
X000898Y019959D01*
X000856Y019986D01*
X000816Y020016D01*
X000779Y020050D01*
X000745Y020087D01*
X000713Y020126D01*
X000685Y020167D01*
X000660Y020211D01*
X000639Y020256D01*
X000622Y020303D01*
X000608Y020351D01*
X000598Y020400D01*
X000592Y020450D01*
X000590Y020500D01*
X018090Y020500D02*
X018092Y020550D01*
X018098Y020600D01*
X018108Y020649D01*
X018122Y020697D01*
X018139Y020744D01*
X018160Y020789D01*
X018185Y020833D01*
X018213Y020874D01*
X018245Y020913D01*
X018279Y020950D01*
X018316Y020984D01*
X018356Y021014D01*
X018398Y021041D01*
X018442Y021065D01*
X018488Y021086D01*
X018535Y021102D01*
X018583Y021115D01*
X018633Y021124D01*
X018682Y021129D01*
X018733Y021130D01*
X018783Y021127D01*
X018832Y021120D01*
X018881Y021109D01*
X018929Y021094D01*
X018975Y021076D01*
X019020Y021054D01*
X019063Y021028D01*
X019104Y020999D01*
X019143Y020967D01*
X019179Y020932D01*
X019211Y020894D01*
X019241Y020854D01*
X019268Y020811D01*
X019291Y020767D01*
X019310Y020721D01*
X019326Y020673D01*
X019338Y020624D01*
X019346Y020575D01*
X019350Y020525D01*
X019350Y020475D01*
X019346Y020425D01*
X019338Y020376D01*
X019326Y020327D01*
X019310Y020279D01*
X019291Y020233D01*
X019268Y020189D01*
X019241Y020146D01*
X019211Y020106D01*
X019179Y020068D01*
X019143Y020033D01*
X019104Y020001D01*
X019063Y019972D01*
X019020Y019946D01*
X018975Y019924D01*
X018929Y019906D01*
X018881Y019891D01*
X018832Y019880D01*
X018783Y019873D01*
X018733Y019870D01*
X018682Y019871D01*
X018633Y019876D01*
X018583Y019885D01*
X018535Y019898D01*
X018488Y019914D01*
X018442Y019935D01*
X018398Y019959D01*
X018356Y019986D01*
X018316Y020016D01*
X018279Y020050D01*
X018245Y020087D01*
X018213Y020126D01*
X018185Y020167D01*
X018160Y020211D01*
X018139Y020256D01*
X018122Y020303D01*
X018108Y020351D01*
X018098Y020400D01*
X018092Y020450D01*
X018090Y020500D01*
X018090Y003000D02*
X018092Y003050D01*
X018098Y003100D01*
X018108Y003149D01*
X018122Y003197D01*
X018139Y003244D01*
X018160Y003289D01*
X018185Y003333D01*
X018213Y003374D01*
X018245Y003413D01*
X018279Y003450D01*
X018316Y003484D01*
X018356Y003514D01*
X018398Y003541D01*
X018442Y003565D01*
X018488Y003586D01*
X018535Y003602D01*
X018583Y003615D01*
X018633Y003624D01*
X018682Y003629D01*
X018733Y003630D01*
X018783Y003627D01*
X018832Y003620D01*
X018881Y003609D01*
X018929Y003594D01*
X018975Y003576D01*
X019020Y003554D01*
X019063Y003528D01*
X019104Y003499D01*
X019143Y003467D01*
X019179Y003432D01*
X019211Y003394D01*
X019241Y003354D01*
X019268Y003311D01*
X019291Y003267D01*
X019310Y003221D01*
X019326Y003173D01*
X019338Y003124D01*
X019346Y003075D01*
X019350Y003025D01*
X019350Y002975D01*
X019346Y002925D01*
X019338Y002876D01*
X019326Y002827D01*
X019310Y002779D01*
X019291Y002733D01*
X019268Y002689D01*
X019241Y002646D01*
X019211Y002606D01*
X019179Y002568D01*
X019143Y002533D01*
X019104Y002501D01*
X019063Y002472D01*
X019020Y002446D01*
X018975Y002424D01*
X018929Y002406D01*
X018881Y002391D01*
X018832Y002380D01*
X018783Y002373D01*
X018733Y002370D01*
X018682Y002371D01*
X018633Y002376D01*
X018583Y002385D01*
X018535Y002398D01*
X018488Y002414D01*
X018442Y002435D01*
X018398Y002459D01*
X018356Y002486D01*
X018316Y002516D01*
X018279Y002550D01*
X018245Y002587D01*
X018213Y002626D01*
X018185Y002667D01*
X018160Y002711D01*
X018139Y002756D01*
X018122Y002803D01*
X018108Y002851D01*
X018098Y002900D01*
X018092Y002950D01*
X018090Y003000D01*
M02*
