G75*
%MOIN*%
%OFA0B0*%
%FSLAX24Y24*%
%IPPOS*%
%LPD*%
%AMOC8*
5,1,8,0,0,1.08239X$1,22.5*
%
%ADD10C,0.0000*%
%ADD11C,0.0040*%
%ADD12C,0.0030*%
%ADD13C,0.0060*%
%ADD14C,0.0070*%
%ADD15C,0.0160*%
%ADD16C,0.0050*%
%ADD17C,0.0100*%
%ADD18C,0.0240*%
%ADD19R,0.0340X0.0240*%
%ADD20C,0.0300*%
%ADD21R,0.0200X0.0300*%
%ADD22R,0.0400X0.0300*%
%ADD23R,0.0300X0.0200*%
%ADD24R,0.0300X0.0400*%
%ADD25R,0.0300X0.0300*%
%ADD26C,0.0020*%
%ADD27R,0.0250X0.0300*%
%ADD28R,0.1100X0.0500*%
D10*
X000220Y002000D02*
X000220Y021496D01*
X019590Y021496D01*
X019590Y002000D01*
X000220Y002000D01*
X000590Y003000D02*
X000592Y003050D01*
X000598Y003100D01*
X000608Y003149D01*
X000622Y003197D01*
X000639Y003244D01*
X000660Y003289D01*
X000685Y003333D01*
X000713Y003374D01*
X000745Y003413D01*
X000779Y003450D01*
X000816Y003484D01*
X000856Y003514D01*
X000898Y003541D01*
X000942Y003565D01*
X000988Y003586D01*
X001035Y003602D01*
X001083Y003615D01*
X001133Y003624D01*
X001182Y003629D01*
X001233Y003630D01*
X001283Y003627D01*
X001332Y003620D01*
X001381Y003609D01*
X001429Y003594D01*
X001475Y003576D01*
X001520Y003554D01*
X001563Y003528D01*
X001604Y003499D01*
X001643Y003467D01*
X001679Y003432D01*
X001711Y003394D01*
X001741Y003354D01*
X001768Y003311D01*
X001791Y003267D01*
X001810Y003221D01*
X001826Y003173D01*
X001838Y003124D01*
X001846Y003075D01*
X001850Y003025D01*
X001850Y002975D01*
X001846Y002925D01*
X001838Y002876D01*
X001826Y002827D01*
X001810Y002779D01*
X001791Y002733D01*
X001768Y002689D01*
X001741Y002646D01*
X001711Y002606D01*
X001679Y002568D01*
X001643Y002533D01*
X001604Y002501D01*
X001563Y002472D01*
X001520Y002446D01*
X001475Y002424D01*
X001429Y002406D01*
X001381Y002391D01*
X001332Y002380D01*
X001283Y002373D01*
X001233Y002370D01*
X001182Y002371D01*
X001133Y002376D01*
X001083Y002385D01*
X001035Y002398D01*
X000988Y002414D01*
X000942Y002435D01*
X000898Y002459D01*
X000856Y002486D01*
X000816Y002516D01*
X000779Y002550D01*
X000745Y002587D01*
X000713Y002626D01*
X000685Y002667D01*
X000660Y002711D01*
X000639Y002756D01*
X000622Y002803D01*
X000608Y002851D01*
X000598Y002900D01*
X000592Y002950D01*
X000590Y003000D01*
X000590Y020500D02*
X000592Y020550D01*
X000598Y020600D01*
X000608Y020649D01*
X000622Y020697D01*
X000639Y020744D01*
X000660Y020789D01*
X000685Y020833D01*
X000713Y020874D01*
X000745Y020913D01*
X000779Y020950D01*
X000816Y020984D01*
X000856Y021014D01*
X000898Y021041D01*
X000942Y021065D01*
X000988Y021086D01*
X001035Y021102D01*
X001083Y021115D01*
X001133Y021124D01*
X001182Y021129D01*
X001233Y021130D01*
X001283Y021127D01*
X001332Y021120D01*
X001381Y021109D01*
X001429Y021094D01*
X001475Y021076D01*
X001520Y021054D01*
X001563Y021028D01*
X001604Y020999D01*
X001643Y020967D01*
X001679Y020932D01*
X001711Y020894D01*
X001741Y020854D01*
X001768Y020811D01*
X001791Y020767D01*
X001810Y020721D01*
X001826Y020673D01*
X001838Y020624D01*
X001846Y020575D01*
X001850Y020525D01*
X001850Y020475D01*
X001846Y020425D01*
X001838Y020376D01*
X001826Y020327D01*
X001810Y020279D01*
X001791Y020233D01*
X001768Y020189D01*
X001741Y020146D01*
X001711Y020106D01*
X001679Y020068D01*
X001643Y020033D01*
X001604Y020001D01*
X001563Y019972D01*
X001520Y019946D01*
X001475Y019924D01*
X001429Y019906D01*
X001381Y019891D01*
X001332Y019880D01*
X001283Y019873D01*
X001233Y019870D01*
X001182Y019871D01*
X001133Y019876D01*
X001083Y019885D01*
X001035Y019898D01*
X000988Y019914D01*
X000942Y019935D01*
X000898Y019959D01*
X000856Y019986D01*
X000816Y020016D01*
X000779Y020050D01*
X000745Y020087D01*
X000713Y020126D01*
X000685Y020167D01*
X000660Y020211D01*
X000639Y020256D01*
X000622Y020303D01*
X000608Y020351D01*
X000598Y020400D01*
X000592Y020450D01*
X000590Y020500D01*
X018090Y020500D02*
X018092Y020550D01*
X018098Y020600D01*
X018108Y020649D01*
X018122Y020697D01*
X018139Y020744D01*
X018160Y020789D01*
X018185Y020833D01*
X018213Y020874D01*
X018245Y020913D01*
X018279Y020950D01*
X018316Y020984D01*
X018356Y021014D01*
X018398Y021041D01*
X018442Y021065D01*
X018488Y021086D01*
X018535Y021102D01*
X018583Y021115D01*
X018633Y021124D01*
X018682Y021129D01*
X018733Y021130D01*
X018783Y021127D01*
X018832Y021120D01*
X018881Y021109D01*
X018929Y021094D01*
X018975Y021076D01*
X019020Y021054D01*
X019063Y021028D01*
X019104Y020999D01*
X019143Y020967D01*
X019179Y020932D01*
X019211Y020894D01*
X019241Y020854D01*
X019268Y020811D01*
X019291Y020767D01*
X019310Y020721D01*
X019326Y020673D01*
X019338Y020624D01*
X019346Y020575D01*
X019350Y020525D01*
X019350Y020475D01*
X019346Y020425D01*
X019338Y020376D01*
X019326Y020327D01*
X019310Y020279D01*
X019291Y020233D01*
X019268Y020189D01*
X019241Y020146D01*
X019211Y020106D01*
X019179Y020068D01*
X019143Y020033D01*
X019104Y020001D01*
X019063Y019972D01*
X019020Y019946D01*
X018975Y019924D01*
X018929Y019906D01*
X018881Y019891D01*
X018832Y019880D01*
X018783Y019873D01*
X018733Y019870D01*
X018682Y019871D01*
X018633Y019876D01*
X018583Y019885D01*
X018535Y019898D01*
X018488Y019914D01*
X018442Y019935D01*
X018398Y019959D01*
X018356Y019986D01*
X018316Y020016D01*
X018279Y020050D01*
X018245Y020087D01*
X018213Y020126D01*
X018185Y020167D01*
X018160Y020211D01*
X018139Y020256D01*
X018122Y020303D01*
X018108Y020351D01*
X018098Y020400D01*
X018092Y020450D01*
X018090Y020500D01*
X018090Y003000D02*
X018092Y003050D01*
X018098Y003100D01*
X018108Y003149D01*
X018122Y003197D01*
X018139Y003244D01*
X018160Y003289D01*
X018185Y003333D01*
X018213Y003374D01*
X018245Y003413D01*
X018279Y003450D01*
X018316Y003484D01*
X018356Y003514D01*
X018398Y003541D01*
X018442Y003565D01*
X018488Y003586D01*
X018535Y003602D01*
X018583Y003615D01*
X018633Y003624D01*
X018682Y003629D01*
X018733Y003630D01*
X018783Y003627D01*
X018832Y003620D01*
X018881Y003609D01*
X018929Y003594D01*
X018975Y003576D01*
X019020Y003554D01*
X019063Y003528D01*
X019104Y003499D01*
X019143Y003467D01*
X019179Y003432D01*
X019211Y003394D01*
X019241Y003354D01*
X019268Y003311D01*
X019291Y003267D01*
X019310Y003221D01*
X019326Y003173D01*
X019338Y003124D01*
X019346Y003075D01*
X019350Y003025D01*
X019350Y002975D01*
X019346Y002925D01*
X019338Y002876D01*
X019326Y002827D01*
X019310Y002779D01*
X019291Y002733D01*
X019268Y002689D01*
X019241Y002646D01*
X019211Y002606D01*
X019179Y002568D01*
X019143Y002533D01*
X019104Y002501D01*
X019063Y002472D01*
X019020Y002446D01*
X018975Y002424D01*
X018929Y002406D01*
X018881Y002391D01*
X018832Y002380D01*
X018783Y002373D01*
X018733Y002370D01*
X018682Y002371D01*
X018633Y002376D01*
X018583Y002385D01*
X018535Y002398D01*
X018488Y002414D01*
X018442Y002435D01*
X018398Y002459D01*
X018356Y002486D01*
X018316Y002516D01*
X018279Y002550D01*
X018245Y002587D01*
X018213Y002626D01*
X018185Y002667D01*
X018160Y002711D01*
X018139Y002756D01*
X018122Y002803D01*
X018108Y002851D01*
X018098Y002900D01*
X018092Y002950D01*
X018090Y003000D01*
D11*
X012700Y003134D02*
X012700Y002827D01*
X012393Y003134D01*
X012393Y002827D01*
X012240Y002673D02*
X012240Y002520D01*
X012240Y002597D02*
X012700Y002597D01*
X012700Y002673D02*
X012700Y002520D01*
X012700Y003287D02*
X012393Y003287D01*
X012393Y003364D01*
X012470Y003441D01*
X012393Y003518D01*
X012470Y003594D01*
X012700Y003594D01*
X012700Y003441D02*
X012470Y003441D01*
X012393Y003748D02*
X012393Y003824D01*
X012700Y003824D01*
X012700Y003748D02*
X012700Y003901D01*
X012700Y004055D02*
X012393Y004055D01*
X012393Y004208D02*
X012393Y004285D01*
X012393Y004208D02*
X012547Y004055D01*
X012240Y003824D02*
X012163Y003824D01*
X012393Y004899D02*
X012240Y005052D01*
X012393Y005206D01*
X012700Y005206D01*
X012470Y005206D02*
X012470Y004899D01*
X012393Y004899D02*
X012700Y004899D01*
X012393Y005359D02*
X012393Y005513D01*
X012316Y005436D02*
X012623Y005436D01*
X012700Y005513D01*
X012623Y005666D02*
X012547Y005743D01*
X012547Y005973D01*
X012470Y005973D02*
X012700Y005973D01*
X012700Y005743D01*
X012623Y005666D01*
X012393Y005743D02*
X012393Y005896D01*
X012470Y005973D01*
X012393Y006126D02*
X012393Y006280D01*
X012316Y006203D02*
X012623Y006203D01*
X012700Y006280D01*
X012623Y006433D02*
X012700Y006510D01*
X012700Y006740D01*
X012393Y006740D01*
X012393Y006894D02*
X012700Y006894D01*
X012547Y006894D02*
X012393Y007047D01*
X012393Y007124D01*
X012240Y007277D02*
X012700Y007277D01*
X012547Y007277D02*
X012393Y007508D01*
X012547Y007277D02*
X012700Y007508D01*
X012700Y008121D02*
X012240Y008121D01*
X012700Y008121D02*
X012700Y008428D01*
X012700Y008582D02*
X012700Y008735D01*
X012700Y008659D02*
X012393Y008659D01*
X012393Y008582D01*
X012240Y008659D02*
X012163Y008659D01*
X012393Y008965D02*
X012470Y008889D01*
X012547Y008965D01*
X012547Y009119D01*
X012623Y009196D01*
X012700Y009119D01*
X012700Y008889D01*
X012393Y008965D02*
X012393Y009196D01*
X012470Y009349D02*
X012393Y009426D01*
X012393Y009579D01*
X012470Y009656D01*
X012547Y009656D01*
X012547Y009349D01*
X012623Y009349D02*
X012470Y009349D01*
X012623Y009349D02*
X012700Y009426D01*
X012700Y009579D01*
X012700Y009810D02*
X012700Y010040D01*
X012623Y010116D01*
X012547Y010040D01*
X012547Y009886D01*
X012470Y009810D01*
X012393Y009886D01*
X012393Y010116D01*
X012393Y010270D02*
X012393Y010347D01*
X012700Y010347D01*
X012700Y010423D02*
X012700Y010270D01*
X012240Y010347D02*
X012163Y010347D01*
X012316Y011037D02*
X012240Y011114D01*
X012240Y011267D01*
X012316Y011344D01*
X012393Y011344D01*
X012700Y011037D01*
X012700Y011344D01*
X012623Y011498D02*
X012316Y011498D01*
X012240Y011574D01*
X012240Y011728D01*
X012316Y011805D01*
X012623Y011498D01*
X012700Y011574D01*
X012700Y011728D01*
X012623Y011805D01*
X012316Y011805D01*
X012393Y011958D02*
X012240Y012112D01*
X012700Y012112D01*
X012700Y012265D02*
X012700Y011958D01*
X012623Y012418D02*
X012470Y012418D01*
X012470Y012649D01*
X012547Y012725D01*
X012623Y012725D01*
X012700Y012649D01*
X012700Y012495D01*
X012623Y012418D01*
X012470Y012418D02*
X012316Y012572D01*
X012240Y012725D01*
X012316Y013339D02*
X012623Y013339D01*
X012700Y013416D01*
X012700Y013569D01*
X012623Y013646D01*
X012316Y013646D01*
X012240Y013569D01*
X012240Y013416D01*
X012316Y013339D01*
X012393Y013800D02*
X012393Y014107D01*
X012700Y013800D01*
X012700Y014107D01*
X012623Y014260D02*
X012547Y014337D01*
X012547Y014567D01*
X012470Y014567D02*
X012700Y014567D01*
X012700Y014337D01*
X012623Y014260D01*
X012393Y014337D02*
X012393Y014490D01*
X012470Y014567D01*
X012393Y014720D02*
X012393Y014951D01*
X012470Y015027D01*
X012700Y015027D01*
X012700Y014720D02*
X012393Y014720D01*
X012393Y015641D02*
X012470Y015718D01*
X012470Y015871D01*
X012547Y015948D01*
X012623Y015948D01*
X012700Y015871D01*
X012700Y015718D01*
X012623Y015641D01*
X012393Y015641D02*
X012316Y015641D01*
X012240Y015718D01*
X012240Y015871D01*
X012316Y015948D01*
X012470Y016102D02*
X012393Y016178D01*
X012393Y016332D01*
X012470Y016409D01*
X012547Y016409D01*
X012547Y016102D01*
X012623Y016102D02*
X012470Y016102D01*
X012623Y016102D02*
X012700Y016178D01*
X012700Y016332D01*
X012700Y016562D02*
X012700Y016715D01*
X012700Y016639D02*
X012240Y016639D01*
X012240Y016562D01*
X012393Y016869D02*
X012393Y017022D01*
X012316Y016946D02*
X012623Y016946D01*
X012700Y017022D01*
X012623Y017176D02*
X012470Y017176D01*
X012393Y017253D01*
X012393Y017406D01*
X012470Y017483D01*
X012547Y017483D01*
X012547Y017176D01*
X012623Y017176D02*
X012700Y017253D01*
X012700Y017406D01*
X013819Y016480D02*
X013896Y016557D01*
X014049Y016404D01*
X014126Y016480D01*
X014280Y016404D02*
X014356Y016480D01*
X014510Y016480D01*
X014587Y016404D01*
X014587Y016327D01*
X014510Y016250D01*
X014587Y016173D01*
X014587Y016097D01*
X014510Y016020D01*
X014356Y016020D01*
X014280Y016097D01*
X014433Y016250D02*
X014510Y016250D01*
X014587Y014980D02*
X014280Y014980D01*
X014280Y014750D01*
X014433Y014827D01*
X014510Y014827D01*
X014587Y014750D01*
X014587Y014597D01*
X014510Y014520D01*
X014356Y014520D01*
X014280Y014597D01*
X014049Y014904D02*
X014126Y014980D01*
X014049Y014904D02*
X013896Y015057D01*
X013819Y014980D01*
X013896Y013557D02*
X013819Y013480D01*
X013896Y013557D02*
X014049Y013404D01*
X014126Y013480D01*
X014280Y013250D02*
X014510Y013250D01*
X014587Y013173D01*
X014587Y013097D01*
X014510Y013020D01*
X014356Y013020D01*
X014280Y013097D01*
X014280Y013250D01*
X014433Y013404D01*
X014587Y013480D01*
X014510Y011980D02*
X014356Y011980D01*
X014280Y011904D01*
X014280Y011827D01*
X014356Y011750D01*
X014587Y011750D01*
X014587Y011597D02*
X014587Y011904D01*
X014510Y011980D01*
X014126Y011980D02*
X014049Y011904D01*
X013896Y012057D01*
X013819Y011980D01*
X014280Y011597D02*
X014356Y011520D01*
X014510Y011520D01*
X014587Y011597D01*
X014510Y010480D02*
X014356Y010480D01*
X014280Y010404D01*
X014280Y010097D01*
X014587Y010404D01*
X014587Y010097D01*
X014510Y010020D01*
X014356Y010020D01*
X014280Y010097D01*
X014126Y010020D02*
X013819Y010020D01*
X013973Y010020D02*
X013973Y010480D01*
X013819Y010327D01*
X013666Y010480D02*
X013589Y010404D01*
X013436Y010557D01*
X013359Y010480D01*
X014510Y010480D02*
X014587Y010404D01*
X014510Y008980D02*
X014356Y008980D01*
X014280Y008904D01*
X014280Y008827D01*
X014356Y008750D01*
X014510Y008750D01*
X014587Y008673D01*
X014587Y008597D01*
X014510Y008520D01*
X014356Y008520D01*
X014280Y008597D01*
X014280Y008673D01*
X014356Y008750D01*
X014510Y008750D02*
X014587Y008827D01*
X014587Y008904D01*
X014510Y008980D01*
X012623Y006433D02*
X012393Y006433D01*
D12*
X015235Y006385D02*
X015235Y006482D01*
X015283Y006530D01*
X015332Y006530D01*
X015380Y006482D01*
X015428Y006530D01*
X015477Y006530D01*
X015525Y006482D01*
X015525Y006385D01*
X015477Y006336D01*
X015428Y006235D02*
X015235Y006235D01*
X015283Y006336D02*
X015235Y006385D01*
X015380Y006433D02*
X015380Y006482D01*
X015380Y006631D02*
X015380Y006825D01*
X015380Y006926D02*
X015332Y007022D01*
X015332Y007071D01*
X015380Y007119D01*
X015477Y007119D01*
X015525Y007071D01*
X015525Y006974D01*
X015477Y006926D01*
X015380Y006926D02*
X015235Y006926D01*
X015235Y007119D01*
X015235Y007220D02*
X015428Y007220D01*
X015525Y007317D01*
X015428Y007414D01*
X015235Y007414D01*
X015435Y007695D02*
X015387Y007743D01*
X015435Y007695D02*
X015532Y007695D01*
X015580Y007743D01*
X015580Y007792D01*
X015532Y007840D01*
X015435Y007840D01*
X015387Y007888D01*
X015387Y007937D01*
X015435Y007985D01*
X015532Y007985D01*
X015580Y007937D01*
X015681Y007985D02*
X015778Y007985D01*
X015730Y007985D02*
X015730Y007695D01*
X015778Y007695D02*
X015681Y007695D01*
X015878Y007743D02*
X015878Y007937D01*
X015926Y007985D01*
X016023Y007985D01*
X016071Y007937D01*
X016071Y007840D02*
X015975Y007840D01*
X016071Y007840D02*
X016071Y007743D01*
X016023Y007695D01*
X015926Y007695D01*
X015878Y007743D01*
X016172Y007840D02*
X016366Y007840D01*
X016467Y007840D02*
X016564Y007888D01*
X016612Y007888D01*
X016661Y007840D01*
X016661Y007743D01*
X016612Y007695D01*
X016515Y007695D01*
X016467Y007743D01*
X016467Y007840D02*
X016467Y007985D01*
X016661Y007985D01*
X016762Y007985D02*
X016762Y007792D01*
X016858Y007695D01*
X016955Y007792D01*
X016955Y007985D01*
X017056Y007840D02*
X017250Y007840D01*
X017351Y007743D02*
X017399Y007695D01*
X017496Y007695D01*
X017545Y007743D01*
X017545Y007840D01*
X017448Y007840D01*
X017545Y007937D02*
X017496Y007985D01*
X017399Y007985D01*
X017351Y007937D01*
X017351Y007743D01*
X017646Y007695D02*
X017646Y007985D01*
X017839Y007695D01*
X017839Y007985D01*
X017940Y007985D02*
X017940Y007695D01*
X018085Y007695D01*
X018134Y007743D01*
X018134Y007937D01*
X018085Y007985D01*
X017940Y007985D01*
X015525Y006138D02*
X015428Y006235D01*
X015525Y006138D02*
X015428Y006042D01*
X015235Y006042D01*
X015283Y005941D02*
X015332Y005941D01*
X015380Y005892D01*
X015428Y005941D01*
X015477Y005941D01*
X015525Y005892D01*
X015525Y005795D01*
X015477Y005747D01*
X015380Y005844D02*
X015380Y005892D01*
X015283Y005941D02*
X015235Y005892D01*
X015235Y005795D01*
X015283Y005747D01*
X015380Y005646D02*
X015380Y005452D01*
X015477Y005351D02*
X015283Y005351D01*
X015235Y005303D01*
X015235Y005158D01*
X015525Y005158D01*
X015525Y005303D01*
X015477Y005351D01*
X015525Y005057D02*
X015235Y005057D01*
X015235Y004863D02*
X015525Y005057D01*
X015525Y004863D02*
X015235Y004863D01*
X015283Y004762D02*
X015235Y004714D01*
X015235Y004617D01*
X015283Y004568D01*
X015477Y004568D01*
X015525Y004617D01*
X015525Y004714D01*
X015477Y004762D01*
X015380Y004762D01*
X015380Y004665D01*
X015380Y004467D02*
X015380Y004274D01*
X015525Y004173D02*
X015525Y003979D01*
X015235Y003979D01*
X015283Y003878D02*
X015235Y003830D01*
X015235Y003733D01*
X015283Y003685D01*
X015477Y003685D01*
X015525Y003733D01*
X015525Y003830D01*
X015477Y003878D01*
X015477Y003583D02*
X015525Y003535D01*
X015525Y003438D01*
X015477Y003390D01*
X015380Y003438D02*
X015380Y003535D01*
X015428Y003583D01*
X015477Y003583D01*
X015380Y003438D02*
X015332Y003390D01*
X015283Y003390D01*
X015235Y003438D01*
X015235Y003535D01*
X015283Y003583D01*
X015380Y003289D02*
X015380Y003095D01*
X015380Y002994D02*
X015380Y002801D01*
X015332Y002801D02*
X015525Y002801D01*
X015477Y002699D02*
X015283Y002699D01*
X015235Y002651D01*
X015235Y002506D01*
X015525Y002506D01*
X015525Y002651D01*
X015477Y002699D01*
X015332Y002801D02*
X015235Y002897D01*
X015332Y002994D01*
X015525Y002994D01*
X015477Y002405D02*
X015525Y002356D01*
X015525Y002260D01*
X015477Y002211D01*
X015380Y002260D02*
X015380Y002356D01*
X015428Y002405D01*
X015477Y002405D01*
X015380Y002260D02*
X015332Y002211D01*
X015283Y002211D01*
X015235Y002260D01*
X015235Y002356D01*
X015283Y002405D01*
X008219Y002577D02*
X008219Y002824D01*
X008157Y002885D01*
X007972Y002885D01*
X007972Y002515D01*
X008157Y002515D01*
X008219Y002577D01*
X007850Y002515D02*
X007850Y002885D01*
X007603Y002885D02*
X007603Y002515D01*
X007482Y002577D02*
X007482Y002700D01*
X007358Y002700D01*
X007235Y002577D02*
X007297Y002515D01*
X007420Y002515D01*
X007482Y002577D01*
X007482Y002824D02*
X007420Y002885D01*
X007297Y002885D01*
X007235Y002824D01*
X007235Y002577D01*
X007603Y002885D02*
X007850Y002515D01*
X006652Y003063D02*
X006603Y003015D01*
X006507Y003015D01*
X006458Y003063D01*
X006357Y003112D02*
X006357Y003305D01*
X006458Y003257D02*
X006507Y003305D01*
X006603Y003305D01*
X006652Y003257D01*
X006652Y003208D01*
X006603Y003160D01*
X006652Y003112D01*
X006652Y003063D01*
X006603Y003160D02*
X006555Y003160D01*
X006357Y003112D02*
X006260Y003015D01*
X006164Y003112D01*
X006164Y003305D01*
X006063Y003257D02*
X006063Y003208D01*
X006014Y003160D01*
X006063Y003112D01*
X006063Y003063D01*
X006014Y003015D01*
X005917Y003015D01*
X005869Y003063D01*
X005966Y003160D02*
X006014Y003160D01*
X006063Y003257D02*
X006014Y003305D01*
X005917Y003305D01*
X005869Y003257D01*
X005768Y003160D02*
X005574Y003160D01*
X005473Y003015D02*
X005473Y003305D01*
X005280Y003305D02*
X005280Y003015D01*
X005179Y003063D02*
X005130Y003015D01*
X005033Y003015D01*
X004985Y003063D01*
X004884Y003063D02*
X004836Y003015D01*
X004739Y003015D01*
X004690Y003063D01*
X004690Y003257D01*
X004739Y003305D01*
X004836Y003305D01*
X004884Y003257D01*
X004985Y003257D02*
X004985Y003208D01*
X005033Y003160D01*
X005130Y003160D01*
X005179Y003112D01*
X005179Y003063D01*
X005179Y003257D02*
X005130Y003305D01*
X005033Y003305D01*
X004985Y003257D01*
X004934Y003515D02*
X004982Y003563D01*
X004934Y003515D02*
X004837Y003515D01*
X004789Y003563D01*
X004789Y003757D01*
X004837Y003805D01*
X004934Y003805D01*
X004982Y003757D01*
X005083Y003805D02*
X005083Y003515D01*
X005277Y003515D01*
X005180Y003660D02*
X005083Y003660D01*
X005083Y003805D02*
X005277Y003805D01*
X005378Y003660D02*
X005571Y003660D01*
X005673Y003563D02*
X005721Y003515D01*
X005818Y003515D01*
X005866Y003563D01*
X005866Y003660D01*
X005769Y003660D01*
X005673Y003757D02*
X005673Y003563D01*
X005673Y003757D02*
X005721Y003805D01*
X005818Y003805D01*
X005866Y003757D01*
X005967Y003805D02*
X005967Y003515D01*
X006161Y003515D02*
X006161Y003805D01*
X006262Y003805D02*
X006407Y003805D01*
X006455Y003757D01*
X006455Y003563D01*
X006407Y003515D01*
X006262Y003515D01*
X006262Y003805D01*
X005967Y003805D02*
X006161Y003515D01*
X005473Y003015D02*
X005280Y003305D01*
X004687Y003660D02*
X004494Y003660D01*
X004393Y003515D02*
X004248Y003660D01*
X004199Y003612D02*
X004393Y003805D01*
X004199Y003805D02*
X004199Y003515D01*
X004098Y003563D02*
X004050Y003515D01*
X003953Y003515D01*
X003905Y003563D01*
X003905Y003757D01*
X003953Y003805D01*
X004050Y003805D01*
X004098Y003757D01*
X003804Y003757D02*
X003755Y003805D01*
X003658Y003805D01*
X003610Y003757D01*
X003610Y003708D01*
X003658Y003660D01*
X003755Y003660D01*
X003804Y003612D01*
X003804Y003563D01*
X003755Y003515D01*
X003658Y003515D01*
X003610Y003563D01*
X003509Y003660D02*
X003315Y003660D01*
X003214Y003563D02*
X003214Y003757D01*
X003166Y003805D01*
X003069Y003805D01*
X003021Y003757D01*
X003021Y003563D01*
X003069Y003515D01*
X003166Y003515D01*
X003214Y003563D01*
X003315Y003305D02*
X003412Y003208D01*
X003509Y003305D01*
X003509Y003015D01*
X003610Y003063D02*
X003658Y003015D01*
X003755Y003015D01*
X003804Y003063D01*
X003804Y003257D01*
X003755Y003305D01*
X003658Y003305D01*
X003610Y003257D01*
X003610Y003063D01*
X003315Y003015D02*
X003315Y003305D01*
X003214Y003160D02*
X003021Y003160D01*
X002920Y003257D02*
X002920Y003063D01*
X002871Y003015D01*
X002774Y003015D01*
X002726Y003063D01*
X002726Y003257D01*
X002774Y003305D01*
X002871Y003305D01*
X002920Y003257D01*
X002823Y003112D02*
X002920Y003015D01*
X002625Y003015D02*
X002528Y003112D01*
X002577Y003112D02*
X002431Y003112D01*
X002431Y003015D02*
X002431Y003305D01*
X002577Y003305D01*
X002625Y003257D01*
X002625Y003160D01*
X002577Y003112D01*
X002332Y003015D02*
X002235Y003015D01*
X002283Y003015D02*
X002283Y003305D01*
X002235Y003305D02*
X002332Y003305D01*
X002428Y003515D02*
X002428Y003805D01*
X002332Y003708D01*
X002235Y003805D01*
X002235Y003515D01*
X002530Y003515D02*
X002626Y003515D01*
X002578Y003515D02*
X002578Y003805D01*
X002530Y003805D02*
X002626Y003805D01*
X002726Y003757D02*
X002774Y003805D01*
X002871Y003805D01*
X002920Y003757D01*
X002871Y003660D02*
X002920Y003612D01*
X002920Y003563D01*
X002871Y003515D01*
X002774Y003515D01*
X002726Y003563D01*
X002774Y003660D02*
X002871Y003660D01*
X002774Y003660D02*
X002726Y003708D01*
X002726Y003757D01*
X003905Y003257D02*
X003905Y003208D01*
X003953Y003160D01*
X004050Y003160D01*
X004098Y003112D01*
X004098Y003063D01*
X004050Y003015D01*
X003953Y003015D01*
X003905Y003063D01*
X003905Y003257D02*
X003953Y003305D01*
X004050Y003305D01*
X004098Y003257D01*
X004199Y003305D02*
X004296Y003305D01*
X004248Y003305D02*
X004248Y003015D01*
X004296Y003015D02*
X004199Y003015D01*
X004396Y003160D02*
X004589Y003160D01*
X004525Y020015D02*
X004587Y020077D01*
X004587Y020200D01*
X004463Y020200D01*
X004340Y020077D02*
X004402Y020015D01*
X004525Y020015D01*
X004708Y020015D02*
X004708Y020385D01*
X004955Y020015D01*
X004955Y020385D01*
X005077Y020385D02*
X005262Y020385D01*
X005323Y020324D01*
X005323Y020077D01*
X005262Y020015D01*
X005077Y020015D01*
X005077Y020385D01*
X005445Y020200D02*
X005692Y020200D01*
X005813Y020138D02*
X005998Y020138D01*
X006060Y020200D01*
X006060Y020324D01*
X005998Y020385D01*
X005813Y020385D01*
X005813Y020015D01*
X005937Y020138D02*
X006060Y020015D01*
X006182Y020015D02*
X006428Y020385D01*
X006550Y020200D02*
X006797Y020200D01*
X006918Y020385D02*
X007165Y020385D01*
X007286Y020385D02*
X007533Y020015D01*
X007286Y020015D02*
X007533Y020385D01*
X007042Y020385D02*
X007042Y020015D01*
X006428Y020015D02*
X006182Y020385D01*
X004587Y020324D02*
X004525Y020385D01*
X004402Y020385D01*
X004340Y020324D01*
X004340Y020077D01*
X004219Y020200D02*
X003972Y020200D01*
X003850Y020138D02*
X003727Y020015D01*
X003603Y020138D01*
X003603Y020385D01*
X003482Y020385D02*
X003235Y020385D01*
X003235Y020200D01*
X003358Y020262D01*
X003420Y020262D01*
X003482Y020200D01*
X003482Y020077D01*
X003420Y020015D01*
X003297Y020015D01*
X003235Y020077D01*
X003850Y020138D02*
X003850Y020385D01*
D13*
X003970Y019500D02*
X003470Y019500D01*
X003220Y019250D01*
X003220Y017750D01*
X003470Y017500D01*
X003970Y017500D01*
X004220Y017750D01*
X004220Y019250D01*
X003970Y019500D01*
X004220Y019250D02*
X004470Y019500D01*
X004970Y019500D01*
X005220Y019250D01*
X005220Y017750D01*
X004970Y017500D01*
X004470Y017500D01*
X004220Y017750D01*
X003720Y016950D02*
X003570Y016950D01*
X003553Y016948D01*
X003536Y016944D01*
X003520Y016937D01*
X003506Y016927D01*
X003493Y016914D01*
X003483Y016900D01*
X003476Y016884D01*
X003472Y016867D01*
X003470Y016850D01*
X003470Y016150D01*
X003472Y016133D01*
X003476Y016116D01*
X003483Y016100D01*
X003493Y016086D01*
X003506Y016073D01*
X003520Y016063D01*
X003536Y016056D01*
X003553Y016052D01*
X003570Y016050D01*
X003720Y016050D01*
X003770Y016100D01*
X005670Y016100D01*
X005720Y016050D01*
X005870Y016050D01*
X005887Y016052D01*
X005904Y016056D01*
X005920Y016063D01*
X005934Y016073D01*
X005947Y016086D01*
X005957Y016100D01*
X005964Y016116D01*
X005968Y016133D01*
X005970Y016150D01*
X005970Y016850D01*
X005968Y016867D01*
X005964Y016884D01*
X005957Y016900D01*
X005947Y016914D01*
X005934Y016927D01*
X005920Y016937D01*
X005904Y016944D01*
X005887Y016948D01*
X005870Y016950D01*
X005720Y016950D01*
X005670Y016900D01*
X003770Y016900D01*
X003720Y016950D01*
X005220Y017750D02*
X005470Y017500D01*
X005970Y017500D01*
X006220Y017750D01*
X006220Y019250D01*
X005970Y019500D01*
X005470Y019500D01*
X005220Y019250D01*
X006220Y019250D02*
X006470Y019500D01*
X006970Y019500D01*
X007220Y019250D01*
X007220Y017750D01*
X006970Y017500D01*
X006470Y017500D01*
X006220Y017750D01*
X008620Y020300D02*
X008620Y005700D01*
X010820Y005700D01*
X010820Y020300D01*
X009970Y020300D01*
X009968Y020270D01*
X009963Y020240D01*
X009954Y020211D01*
X009941Y020184D01*
X009926Y020158D01*
X009907Y020134D01*
X009886Y020113D01*
X009862Y020094D01*
X009836Y020079D01*
X009809Y020066D01*
X009780Y020057D01*
X009750Y020052D01*
X009720Y020050D01*
X009690Y020052D01*
X009660Y020057D01*
X009631Y020066D01*
X009604Y020079D01*
X009578Y020094D01*
X009554Y020113D01*
X009533Y020134D01*
X009514Y020158D01*
X009499Y020184D01*
X009486Y020211D01*
X009477Y020240D01*
X009472Y020270D01*
X009470Y020300D01*
X008620Y020300D01*
X004720Y014700D02*
X004720Y014400D01*
X004870Y014550D02*
X004570Y014550D01*
X004220Y014000D02*
X004222Y014063D01*
X004228Y014125D01*
X004238Y014187D01*
X004251Y014249D01*
X004269Y014309D01*
X004290Y014368D01*
X004315Y014426D01*
X004344Y014482D01*
X004376Y014536D01*
X004411Y014588D01*
X004449Y014637D01*
X004491Y014685D01*
X004535Y014729D01*
X004583Y014771D01*
X004632Y014809D01*
X004684Y014844D01*
X004738Y014876D01*
X004794Y014905D01*
X004852Y014930D01*
X004911Y014951D01*
X004971Y014969D01*
X005033Y014982D01*
X005095Y014992D01*
X005157Y014998D01*
X005220Y015000D01*
X005283Y014998D01*
X005345Y014992D01*
X005407Y014982D01*
X005469Y014969D01*
X005529Y014951D01*
X005588Y014930D01*
X005646Y014905D01*
X005702Y014876D01*
X005756Y014844D01*
X005808Y014809D01*
X005857Y014771D01*
X005905Y014729D01*
X005949Y014685D01*
X005991Y014637D01*
X006029Y014588D01*
X006064Y014536D01*
X006096Y014482D01*
X006125Y014426D01*
X006150Y014368D01*
X006171Y014309D01*
X006189Y014249D01*
X006202Y014187D01*
X006212Y014125D01*
X006218Y014063D01*
X006220Y014000D01*
X006218Y013937D01*
X006212Y013875D01*
X006202Y013813D01*
X006189Y013751D01*
X006171Y013691D01*
X006150Y013632D01*
X006125Y013574D01*
X006096Y013518D01*
X006064Y013464D01*
X006029Y013412D01*
X005991Y013363D01*
X005949Y013315D01*
X005905Y013271D01*
X005857Y013229D01*
X005808Y013191D01*
X005756Y013156D01*
X005702Y013124D01*
X005646Y013095D01*
X005588Y013070D01*
X005529Y013049D01*
X005469Y013031D01*
X005407Y013018D01*
X005345Y013008D01*
X005283Y013002D01*
X005220Y013000D01*
X005157Y013002D01*
X005095Y013008D01*
X005033Y013018D01*
X004971Y013031D01*
X004911Y013049D01*
X004852Y013070D01*
X004794Y013095D01*
X004738Y013124D01*
X004684Y013156D01*
X004632Y013191D01*
X004583Y013229D01*
X004535Y013271D01*
X004491Y013315D01*
X004449Y013363D01*
X004411Y013412D01*
X004376Y013464D01*
X004344Y013518D01*
X004315Y013574D01*
X004290Y013632D01*
X004269Y013691D01*
X004251Y013751D01*
X004238Y013813D01*
X004228Y013875D01*
X004222Y013937D01*
X004220Y014000D01*
X002220Y014000D02*
X002222Y014063D01*
X002228Y014125D01*
X002238Y014187D01*
X002251Y014249D01*
X002269Y014309D01*
X002290Y014368D01*
X002315Y014426D01*
X002344Y014482D01*
X002376Y014536D01*
X002411Y014588D01*
X002449Y014637D01*
X002491Y014685D01*
X002535Y014729D01*
X002583Y014771D01*
X002632Y014809D01*
X002684Y014844D01*
X002738Y014876D01*
X002794Y014905D01*
X002852Y014930D01*
X002911Y014951D01*
X002971Y014969D01*
X003033Y014982D01*
X003095Y014992D01*
X003157Y014998D01*
X003220Y015000D01*
X003283Y014998D01*
X003345Y014992D01*
X003407Y014982D01*
X003469Y014969D01*
X003529Y014951D01*
X003588Y014930D01*
X003646Y014905D01*
X003702Y014876D01*
X003756Y014844D01*
X003808Y014809D01*
X003857Y014771D01*
X003905Y014729D01*
X003949Y014685D01*
X003991Y014637D01*
X004029Y014588D01*
X004064Y014536D01*
X004096Y014482D01*
X004125Y014426D01*
X004150Y014368D01*
X004171Y014309D01*
X004189Y014249D01*
X004202Y014187D01*
X004212Y014125D01*
X004218Y014063D01*
X004220Y014000D01*
X004218Y013937D01*
X004212Y013875D01*
X004202Y013813D01*
X004189Y013751D01*
X004171Y013691D01*
X004150Y013632D01*
X004125Y013574D01*
X004096Y013518D01*
X004064Y013464D01*
X004029Y013412D01*
X003991Y013363D01*
X003949Y013315D01*
X003905Y013271D01*
X003857Y013229D01*
X003808Y013191D01*
X003756Y013156D01*
X003702Y013124D01*
X003646Y013095D01*
X003588Y013070D01*
X003529Y013049D01*
X003469Y013031D01*
X003407Y013018D01*
X003345Y013008D01*
X003283Y013002D01*
X003220Y013000D01*
X003157Y013002D01*
X003095Y013008D01*
X003033Y013018D01*
X002971Y013031D01*
X002911Y013049D01*
X002852Y013070D01*
X002794Y013095D01*
X002738Y013124D01*
X002684Y013156D01*
X002632Y013191D01*
X002583Y013229D01*
X002535Y013271D01*
X002491Y013315D01*
X002449Y013363D01*
X002411Y013412D01*
X002376Y013464D01*
X002344Y013518D01*
X002315Y013574D01*
X002290Y013632D01*
X002269Y013691D01*
X002251Y013751D01*
X002238Y013813D01*
X002228Y013875D01*
X002222Y013937D01*
X002220Y014000D01*
X002720Y014400D02*
X002720Y014700D01*
X002870Y014550D02*
X002570Y014550D01*
X002320Y012000D02*
X002318Y011953D01*
X002312Y011905D01*
X002303Y011859D01*
X002290Y011813D01*
X002274Y011769D01*
X002253Y011725D01*
X002230Y011684D01*
X002204Y011645D01*
X002174Y011608D01*
X002141Y011573D01*
X002106Y011541D01*
X002069Y011512D01*
X001120Y012000D02*
X001122Y012045D01*
X001127Y012091D01*
X001135Y012135D01*
X001147Y012179D01*
X001163Y012222D01*
X001181Y012264D01*
X001203Y012304D01*
X001227Y012342D01*
X001254Y012378D01*
X001284Y012413D01*
X001317Y012444D01*
X001352Y012474D01*
X001120Y012000D02*
X001122Y011955D01*
X001127Y011909D01*
X001135Y011865D01*
X001147Y011821D01*
X001163Y011778D01*
X001181Y011736D01*
X001203Y011696D01*
X001227Y011658D01*
X001254Y011622D01*
X001284Y011587D01*
X001317Y011556D01*
X001352Y011526D01*
X002320Y012000D02*
X002318Y012046D01*
X002313Y012092D01*
X002304Y012138D01*
X002292Y012183D01*
X002276Y012226D01*
X002257Y012268D01*
X002234Y012309D01*
X002209Y012348D01*
X002181Y012384D01*
X002150Y012419D01*
X002116Y012451D01*
X002080Y012480D01*
X002870Y011500D02*
X004570Y011500D01*
X004587Y011498D01*
X004604Y011494D01*
X004620Y011487D01*
X004634Y011477D01*
X004647Y011464D01*
X004657Y011450D01*
X004664Y011434D01*
X004668Y011417D01*
X004670Y011400D01*
X004670Y010600D01*
X004668Y010583D01*
X004664Y010566D01*
X004657Y010550D01*
X004647Y010536D01*
X004634Y010523D01*
X004620Y010513D01*
X004604Y010506D01*
X004587Y010502D01*
X004570Y010500D01*
X002870Y010500D01*
X002853Y010502D01*
X002836Y010506D01*
X002820Y010513D01*
X002806Y010523D01*
X002793Y010536D01*
X002783Y010550D01*
X002776Y010566D01*
X002772Y010583D01*
X002770Y010600D01*
X002770Y011400D01*
X002772Y011417D01*
X002776Y011434D01*
X002783Y011450D01*
X002793Y011464D01*
X002806Y011477D01*
X002820Y011487D01*
X002836Y011494D01*
X002853Y011498D01*
X002870Y011500D01*
X003570Y011000D02*
X003620Y011000D01*
X003820Y011000D02*
X003870Y011000D01*
X004570Y009500D02*
X002870Y009500D01*
X002853Y009498D01*
X002836Y009494D01*
X002820Y009487D01*
X002806Y009477D01*
X002793Y009464D01*
X002783Y009450D01*
X002776Y009434D01*
X002772Y009417D01*
X002770Y009400D01*
X002770Y008600D01*
X002772Y008583D01*
X002776Y008566D01*
X002783Y008550D01*
X002793Y008536D01*
X002806Y008523D01*
X002820Y008513D01*
X002836Y008506D01*
X002853Y008502D01*
X002870Y008500D01*
X004570Y008500D01*
X004587Y008502D01*
X004604Y008506D01*
X004620Y008513D01*
X004634Y008523D01*
X004647Y008536D01*
X004657Y008550D01*
X004664Y008566D01*
X004668Y008583D01*
X004670Y008600D01*
X004670Y009400D01*
X004668Y009417D01*
X004664Y009434D01*
X004657Y009450D01*
X004647Y009464D01*
X004634Y009477D01*
X004620Y009487D01*
X004604Y009494D01*
X004587Y009498D01*
X004570Y009500D01*
X003870Y009000D02*
X003820Y009000D01*
X003620Y009000D02*
X003570Y009000D01*
X003570Y007450D02*
X003720Y007450D01*
X003770Y007400D01*
X005670Y007400D01*
X005720Y007450D01*
X005870Y007450D01*
X005887Y007448D01*
X005904Y007444D01*
X005920Y007437D01*
X005934Y007427D01*
X005947Y007414D01*
X005957Y007400D01*
X005964Y007384D01*
X005968Y007367D01*
X005970Y007350D01*
X005970Y006650D01*
X005968Y006633D01*
X005964Y006616D01*
X005957Y006600D01*
X005947Y006586D01*
X005934Y006573D01*
X005920Y006563D01*
X005904Y006556D01*
X005887Y006552D01*
X005870Y006550D01*
X005720Y006550D01*
X005670Y006600D01*
X003770Y006600D01*
X003720Y006550D01*
X003570Y006550D01*
X003553Y006552D01*
X003536Y006556D01*
X003520Y006563D01*
X003506Y006573D01*
X003493Y006586D01*
X003483Y006600D01*
X003476Y006616D01*
X003472Y006633D01*
X003470Y006650D01*
X003470Y007350D01*
X003472Y007367D01*
X003476Y007384D01*
X003483Y007400D01*
X003493Y007414D01*
X003506Y007427D01*
X003520Y007437D01*
X003536Y007444D01*
X003553Y007448D01*
X003570Y007450D01*
X001120Y008500D02*
X001122Y008547D01*
X001128Y008595D01*
X001137Y008641D01*
X001150Y008687D01*
X001166Y008731D01*
X001187Y008775D01*
X001210Y008816D01*
X001236Y008855D01*
X001266Y008892D01*
X001299Y008927D01*
X001334Y008959D01*
X001371Y008988D01*
X002320Y008500D02*
X002318Y008455D01*
X002313Y008409D01*
X002305Y008365D01*
X002293Y008321D01*
X002277Y008278D01*
X002259Y008236D01*
X002237Y008196D01*
X002213Y008158D01*
X002186Y008122D01*
X002156Y008087D01*
X002123Y008056D01*
X002088Y008026D01*
X002320Y008500D02*
X002318Y008545D01*
X002313Y008591D01*
X002305Y008635D01*
X002293Y008679D01*
X002277Y008722D01*
X002259Y008764D01*
X002237Y008804D01*
X002213Y008842D01*
X002186Y008878D01*
X002156Y008913D01*
X002123Y008944D01*
X002088Y008974D01*
X001120Y008500D02*
X001122Y008454D01*
X001127Y008408D01*
X001136Y008362D01*
X001148Y008317D01*
X001164Y008274D01*
X001183Y008232D01*
X001206Y008191D01*
X001231Y008152D01*
X001259Y008116D01*
X001290Y008081D01*
X001324Y008049D01*
X001360Y008020D01*
X005420Y008800D02*
X005420Y011200D01*
X005422Y011256D01*
X005428Y011311D01*
X005437Y011366D01*
X005451Y011421D01*
X005468Y011474D01*
X005489Y011525D01*
X005514Y011576D01*
X005542Y011624D01*
X005573Y011670D01*
X005607Y011714D01*
X005645Y011756D01*
X005685Y011795D01*
X005727Y011830D01*
X005773Y011863D01*
X005820Y011893D01*
X005869Y011919D01*
X005920Y011942D01*
X005973Y011961D01*
X006026Y011976D01*
X006081Y011988D01*
X006136Y011996D01*
X006192Y012000D01*
X006248Y012000D01*
X006304Y011996D01*
X006359Y011988D01*
X006414Y011976D01*
X006467Y011961D01*
X006520Y011942D01*
X006571Y011919D01*
X006620Y011893D01*
X006667Y011863D01*
X006713Y011830D01*
X006755Y011795D01*
X006795Y011756D01*
X006833Y011714D01*
X006867Y011670D01*
X006898Y011624D01*
X006926Y011576D01*
X006951Y011525D01*
X006972Y011474D01*
X006989Y011421D01*
X007003Y011366D01*
X007012Y011311D01*
X007018Y011256D01*
X007020Y011200D01*
X007020Y008800D01*
X007018Y008744D01*
X007012Y008689D01*
X007003Y008634D01*
X006989Y008579D01*
X006972Y008526D01*
X006951Y008475D01*
X006926Y008424D01*
X006898Y008376D01*
X006867Y008330D01*
X006833Y008286D01*
X006795Y008244D01*
X006755Y008205D01*
X006713Y008170D01*
X006667Y008137D01*
X006620Y008107D01*
X006571Y008081D01*
X006520Y008058D01*
X006467Y008039D01*
X006414Y008024D01*
X006359Y008012D01*
X006304Y008004D01*
X006248Y008000D01*
X006192Y008000D01*
X006136Y008004D01*
X006081Y008012D01*
X006026Y008024D01*
X005973Y008039D01*
X005920Y008058D01*
X005869Y008081D01*
X005820Y008107D01*
X005773Y008137D01*
X005727Y008170D01*
X005685Y008205D01*
X005645Y008244D01*
X005607Y008286D01*
X005573Y008330D01*
X005542Y008376D01*
X005514Y008424D01*
X005489Y008475D01*
X005468Y008526D01*
X005451Y008579D01*
X005437Y008634D01*
X005428Y008689D01*
X005422Y008744D01*
X005420Y008800D01*
X006220Y009450D02*
X006220Y009730D01*
X005820Y009730D01*
X005820Y009880D02*
X006620Y009880D01*
X006620Y010130D01*
X005820Y010130D01*
X005820Y009880D01*
X005820Y010270D02*
X006220Y010270D01*
X006220Y010550D01*
X006220Y010270D02*
X006620Y010270D01*
X006620Y009730D02*
X006220Y009730D01*
X008470Y005000D02*
X008970Y005000D01*
X009220Y004750D01*
X009220Y003250D01*
X008970Y003000D01*
X008470Y003000D01*
X008220Y003250D01*
X008220Y004750D01*
X008470Y005000D01*
X009220Y004750D02*
X009470Y005000D01*
X009970Y005000D01*
X010220Y004750D01*
X010220Y003250D01*
X009970Y003000D01*
X009470Y003000D01*
X009220Y003250D01*
X010220Y003250D02*
X010470Y003000D01*
X010970Y003000D01*
X011220Y003250D01*
X011220Y004750D01*
X010970Y005000D01*
X010470Y005000D01*
X010220Y004750D01*
X005720Y003750D02*
X005720Y002750D01*
X004720Y002750D01*
X003720Y002750D01*
X002720Y002750D01*
X001720Y002750D01*
X001720Y003750D01*
X002720Y003750D01*
X002720Y002750D01*
X002720Y003750D02*
X003720Y003750D01*
X003720Y002750D01*
X003720Y003750D02*
X004720Y003750D01*
X004720Y002750D01*
X004720Y003750D02*
X005720Y003750D01*
X014970Y003500D02*
X014970Y002500D01*
X015970Y002500D01*
X015970Y003500D01*
X015970Y004500D01*
X015970Y005500D01*
X015970Y006500D01*
X015970Y007500D01*
X014970Y007500D01*
X014970Y006500D01*
X014970Y005500D01*
X014970Y004500D01*
X014970Y003500D01*
X015970Y003500D01*
X015970Y004500D02*
X014970Y004500D01*
X014970Y005500D02*
X015970Y005500D01*
X015970Y006500D02*
X014970Y006500D01*
X015470Y008500D02*
X015970Y008500D01*
X016220Y008750D01*
X016470Y008500D01*
X016970Y008500D01*
X017220Y008750D01*
X017470Y008500D01*
X017970Y008500D01*
X018220Y008750D01*
X018220Y009250D01*
X017970Y009500D01*
X017470Y009500D01*
X017220Y009250D01*
X017220Y008750D01*
X017220Y009250D02*
X016970Y009500D01*
X016470Y009500D01*
X016220Y009250D01*
X016220Y008750D01*
X016220Y009250D02*
X015970Y009500D01*
X015470Y009500D01*
X015220Y009250D01*
X015220Y008750D01*
X015470Y008500D01*
X015470Y010000D02*
X015970Y010000D01*
X016220Y010250D01*
X016470Y010000D01*
X016970Y010000D01*
X017220Y010250D01*
X017470Y010000D01*
X017970Y010000D01*
X018220Y010250D01*
X018220Y010750D01*
X017970Y011000D01*
X017470Y011000D01*
X017220Y010750D01*
X017220Y010250D01*
X017220Y010750D02*
X016970Y011000D01*
X016470Y011000D01*
X016220Y010750D01*
X016220Y010250D01*
X016220Y010750D02*
X015970Y011000D01*
X015470Y011000D01*
X015220Y010750D01*
X015220Y010250D01*
X015470Y010000D01*
X015470Y011500D02*
X015970Y011500D01*
X016220Y011750D01*
X016470Y011500D01*
X016970Y011500D01*
X017220Y011750D01*
X017470Y011500D01*
X017970Y011500D01*
X018220Y011750D01*
X018220Y012250D01*
X017970Y012500D01*
X017470Y012500D01*
X017220Y012250D01*
X017220Y011750D01*
X017220Y012250D02*
X016970Y012500D01*
X016470Y012500D01*
X016220Y012250D01*
X016220Y011750D01*
X016220Y012250D02*
X015970Y012500D01*
X015470Y012500D01*
X015220Y012250D01*
X015220Y011750D01*
X015470Y011500D01*
X015470Y013000D02*
X015970Y013000D01*
X016220Y013250D01*
X016470Y013000D01*
X016970Y013000D01*
X017220Y013250D01*
X017470Y013000D01*
X017970Y013000D01*
X018220Y013250D01*
X018220Y013750D01*
X017970Y014000D01*
X017470Y014000D01*
X017220Y013750D01*
X017220Y013250D01*
X017220Y013750D02*
X016970Y014000D01*
X016470Y014000D01*
X016220Y013750D01*
X016220Y013250D01*
X016220Y013750D02*
X015970Y014000D01*
X015470Y014000D01*
X015220Y013750D01*
X015220Y013250D01*
X015470Y013000D01*
X015470Y014500D02*
X015970Y014500D01*
X016220Y014750D01*
X016470Y014500D01*
X016970Y014500D01*
X017220Y014750D01*
X017470Y014500D01*
X017970Y014500D01*
X018220Y014750D01*
X018220Y015250D01*
X017970Y015500D01*
X017470Y015500D01*
X017220Y015250D01*
X017220Y014750D01*
X017220Y015250D02*
X016970Y015500D01*
X016470Y015500D01*
X016220Y015250D01*
X016220Y014750D01*
X016220Y015250D02*
X015970Y015500D01*
X015470Y015500D01*
X015220Y015250D01*
X015220Y014750D01*
X015470Y014500D01*
X015470Y016000D02*
X015970Y016000D01*
X016220Y016250D01*
X016470Y016000D01*
X016970Y016000D01*
X017220Y016250D01*
X017470Y016000D01*
X017970Y016000D01*
X018220Y016250D01*
X018220Y016750D01*
X017970Y017000D01*
X017470Y017000D01*
X017220Y016750D01*
X017220Y016250D01*
X017220Y016750D02*
X016970Y017000D01*
X016470Y017000D01*
X016220Y016750D01*
X016220Y016250D01*
X016220Y016750D02*
X015970Y017000D01*
X015470Y017000D01*
X015220Y016750D01*
X015220Y016250D01*
X015470Y016000D01*
D14*
X015465Y021335D02*
X015255Y021335D01*
X015360Y021335D02*
X015360Y021966D01*
X015255Y021966D02*
X015465Y021966D01*
X015685Y021860D02*
X015685Y021440D01*
X015790Y021335D01*
X016000Y021335D01*
X016105Y021440D01*
X016329Y021335D02*
X016750Y021755D01*
X016750Y021860D01*
X016645Y021966D01*
X016434Y021966D01*
X016329Y021860D01*
X016105Y021860D02*
X016000Y021966D01*
X015790Y021966D01*
X015685Y021860D01*
X016329Y021335D02*
X016750Y021335D01*
X010250Y020595D02*
X009829Y020595D01*
X010039Y020595D02*
X010039Y021226D01*
X009829Y021015D01*
X009605Y021120D02*
X009500Y021226D01*
X009290Y021226D01*
X009185Y021120D01*
X009185Y020700D01*
X009290Y020595D01*
X009500Y020595D01*
X009605Y020700D01*
X008965Y020595D02*
X008755Y020595D01*
X008860Y020595D02*
X008860Y021226D01*
X008755Y021226D02*
X008965Y021226D01*
D15*
X007220Y011200D02*
X007220Y008800D01*
X007218Y008738D01*
X007212Y008677D01*
X007203Y008616D01*
X007190Y008556D01*
X007173Y008497D01*
X007152Y008439D01*
X007128Y008382D01*
X007101Y008327D01*
X007070Y008274D01*
X007036Y008222D01*
X006999Y008173D01*
X006959Y008126D01*
X006916Y008082D01*
X006871Y008041D01*
X006823Y008002D01*
X006772Y007966D01*
X006720Y007934D01*
X006666Y007905D01*
X006610Y007879D01*
X006552Y007857D01*
X006494Y007838D01*
X006434Y007823D01*
X006373Y007812D01*
X006312Y007804D01*
X006251Y007800D01*
X006189Y007800D01*
X006128Y007804D01*
X006067Y007812D01*
X006006Y007823D01*
X005946Y007838D01*
X005888Y007857D01*
X005830Y007879D01*
X005774Y007905D01*
X005720Y007934D01*
X005668Y007966D01*
X005617Y008002D01*
X005569Y008041D01*
X005524Y008082D01*
X005481Y008126D01*
X005441Y008173D01*
X005404Y008222D01*
X005370Y008274D01*
X005339Y008327D01*
X005312Y008382D01*
X005288Y008439D01*
X005267Y008497D01*
X005250Y008556D01*
X005237Y008616D01*
X005228Y008677D01*
X005222Y008738D01*
X005220Y008800D01*
X005220Y011200D01*
X005222Y011262D01*
X005228Y011323D01*
X005237Y011384D01*
X005250Y011444D01*
X005267Y011503D01*
X005288Y011561D01*
X005312Y011618D01*
X005339Y011673D01*
X005370Y011726D01*
X005404Y011778D01*
X005441Y011827D01*
X005481Y011874D01*
X005524Y011918D01*
X005569Y011959D01*
X005617Y011998D01*
X005668Y012034D01*
X005720Y012066D01*
X005774Y012095D01*
X005830Y012121D01*
X005888Y012143D01*
X005946Y012162D01*
X006006Y012177D01*
X006067Y012188D01*
X006128Y012196D01*
X006189Y012200D01*
X006251Y012200D01*
X006312Y012196D01*
X006373Y012188D01*
X006434Y012177D01*
X006494Y012162D01*
X006552Y012143D01*
X006610Y012121D01*
X006666Y012095D01*
X006720Y012066D01*
X006772Y012034D01*
X006823Y011998D01*
X006871Y011959D01*
X006916Y011918D01*
X006959Y011874D01*
X006999Y011827D01*
X007036Y011778D01*
X007070Y011726D01*
X007101Y011673D01*
X007128Y011618D01*
X007152Y011561D01*
X007173Y011503D01*
X007190Y011444D01*
X007203Y011384D01*
X007212Y011323D01*
X007218Y011262D01*
X007220Y011200D01*
D16*
X007495Y011179D02*
X007495Y011329D01*
X007570Y011404D01*
X007870Y011404D01*
X007945Y011329D01*
X007945Y011179D01*
X007870Y011104D01*
X007570Y011104D01*
X007495Y011179D01*
X007645Y011565D02*
X007495Y011715D01*
X007945Y011715D01*
X007945Y011565D02*
X007945Y011865D01*
X007945Y011404D02*
X007795Y011254D01*
X005418Y013175D02*
X005418Y013515D01*
X005531Y013515D02*
X005304Y013515D01*
X005172Y013515D02*
X004945Y013515D01*
X005058Y013515D02*
X005058Y013175D01*
X004931Y014525D02*
X004931Y014975D01*
X004705Y014750D01*
X005006Y014750D01*
X004545Y014600D02*
X004470Y014525D01*
X004320Y014525D01*
X004245Y014600D01*
X004245Y014900D01*
X004320Y014975D01*
X004470Y014975D01*
X004545Y014900D01*
X005074Y015475D02*
X005074Y015925D01*
X005299Y015925D01*
X005374Y015850D01*
X005374Y015700D01*
X005299Y015625D01*
X005074Y015625D01*
X005224Y015625D02*
X005374Y015475D01*
X005535Y015475D02*
X005835Y015475D01*
X005685Y015475D02*
X005685Y015925D01*
X005535Y015775D01*
X006320Y014975D02*
X006245Y014900D01*
X006245Y014600D01*
X006320Y014525D01*
X006470Y014525D01*
X006545Y014600D01*
X006705Y014600D02*
X006780Y014525D01*
X006931Y014525D01*
X007006Y014600D01*
X007006Y014675D01*
X006931Y014750D01*
X006856Y014750D01*
X006931Y014750D02*
X007006Y014825D01*
X007006Y014900D01*
X006931Y014975D01*
X006780Y014975D01*
X006705Y014900D01*
X006545Y014900D02*
X006470Y014975D01*
X006320Y014975D01*
X006324Y016775D02*
X006324Y017225D01*
X006549Y017225D01*
X006624Y017150D01*
X006624Y017000D01*
X006549Y016925D01*
X006324Y016925D01*
X006474Y016925D02*
X006624Y016775D01*
X006935Y016775D02*
X006935Y017225D01*
X006785Y017225D02*
X007085Y017225D01*
X006164Y017075D02*
X006164Y016775D01*
X006164Y017000D02*
X005864Y017000D01*
X005864Y017075D02*
X006014Y017225D01*
X006164Y017075D01*
X005864Y017075D02*
X005864Y016775D01*
X005704Y016850D02*
X005629Y016775D01*
X005478Y016775D01*
X005403Y016850D01*
X005243Y016850D02*
X005243Y017225D01*
X005403Y017150D02*
X005403Y017075D01*
X005478Y017000D01*
X005629Y017000D01*
X005704Y016925D01*
X005704Y016850D01*
X005704Y017150D02*
X005629Y017225D01*
X005478Y017225D01*
X005403Y017150D01*
X005243Y016850D02*
X005168Y016775D01*
X005018Y016775D01*
X004943Y016850D01*
X004943Y017225D01*
X003531Y013515D02*
X003304Y013515D01*
X003418Y013515D02*
X003418Y013175D01*
X003058Y013175D02*
X003058Y013515D01*
X002945Y013515D02*
X003172Y013515D01*
X003070Y012075D02*
X002920Y012075D01*
X002845Y012000D01*
X002845Y011700D01*
X002920Y011625D01*
X003070Y011625D01*
X003145Y011700D01*
X003305Y011625D02*
X003606Y011625D01*
X003456Y011625D02*
X003456Y012075D01*
X003305Y011925D01*
X003145Y012000D02*
X003070Y012075D01*
X002345Y011115D02*
X001895Y011115D01*
X001895Y010815D02*
X002345Y011115D01*
X002345Y010815D02*
X001895Y010815D01*
X001970Y010654D02*
X001895Y010579D01*
X001895Y010429D01*
X001970Y010354D01*
X002270Y010354D01*
X002345Y010429D01*
X002345Y010579D01*
X002270Y010654D01*
X001970Y010654D01*
X001545Y010656D02*
X001545Y010956D01*
X001545Y010656D02*
X001245Y010956D01*
X001170Y010956D01*
X001095Y010881D01*
X001095Y010731D01*
X001170Y010656D01*
X001170Y010496D02*
X001095Y010421D01*
X001095Y010196D01*
X001545Y010196D01*
X001545Y010421D01*
X001470Y010496D01*
X001170Y010496D01*
X001095Y010036D02*
X001095Y009735D01*
X001545Y009735D01*
X001545Y010036D01*
X001320Y009886D02*
X001320Y009735D01*
X001545Y009575D02*
X001545Y009275D01*
X001095Y009275D01*
X001895Y009433D02*
X002345Y009433D01*
X002345Y009734D01*
X002345Y009894D02*
X002345Y010119D01*
X002270Y010194D01*
X001970Y010194D01*
X001895Y010119D01*
X001895Y009894D01*
X002345Y009894D01*
X002120Y009584D02*
X002120Y009433D01*
X001895Y009433D02*
X001895Y009734D01*
X002345Y009273D02*
X002345Y008973D01*
X001895Y008973D01*
X002845Y009700D02*
X002920Y009625D01*
X003070Y009625D01*
X003145Y009700D01*
X003305Y009625D02*
X003606Y009925D01*
X003606Y010000D01*
X003531Y010075D01*
X003380Y010075D01*
X003305Y010000D01*
X003145Y010000D02*
X003070Y010075D01*
X002920Y010075D01*
X002845Y010000D01*
X002845Y009700D01*
X003305Y009625D02*
X003606Y009625D01*
X003495Y008025D02*
X003720Y008025D01*
X003795Y007950D01*
X003795Y007800D01*
X003720Y007725D01*
X003495Y007725D01*
X003495Y007575D02*
X003495Y008025D01*
X003645Y007725D02*
X003795Y007575D01*
X003955Y007575D02*
X004256Y007875D01*
X004256Y007950D01*
X004181Y008025D01*
X004030Y008025D01*
X003955Y007950D01*
X003955Y007575D02*
X004256Y007575D01*
X006445Y004365D02*
X006445Y004065D01*
X006445Y004215D02*
X005995Y004215D01*
X006145Y004065D01*
X006070Y003904D02*
X005995Y003829D01*
X005995Y003679D01*
X006070Y003604D01*
X006370Y003604D01*
X006070Y003904D01*
X006370Y003904D01*
X006445Y003829D01*
X006445Y003679D01*
X006370Y003604D01*
X006445Y003444D02*
X006445Y003144D01*
X005995Y003144D01*
X005995Y002909D02*
X006220Y002683D01*
X006220Y002984D01*
X006445Y002909D02*
X005995Y002909D01*
X006070Y002523D02*
X005995Y002448D01*
X005995Y002298D01*
X006070Y002223D01*
X005995Y002063D02*
X005995Y001763D01*
X006445Y001763D01*
X006445Y001603D02*
X006295Y001452D01*
X006295Y001527D02*
X006295Y001302D01*
X006445Y001302D02*
X005995Y001302D01*
X005995Y001527D01*
X006070Y001603D01*
X006220Y001603D01*
X006295Y001527D01*
X006220Y001763D02*
X006220Y001913D01*
X006445Y002223D02*
X006145Y002523D01*
X006070Y002523D01*
X006445Y002523D02*
X006445Y002223D01*
X006445Y001142D02*
X005995Y001142D01*
X005995Y000842D02*
X006445Y001142D01*
X006445Y000842D02*
X005995Y000842D01*
X009557Y002275D02*
X009707Y002275D01*
X009632Y002275D02*
X009632Y002725D01*
X009557Y002725D02*
X009707Y002725D01*
X009864Y002650D02*
X009864Y002575D01*
X009939Y002500D01*
X010089Y002500D01*
X010164Y002425D01*
X010164Y002350D01*
X010089Y002275D01*
X009939Y002275D01*
X009864Y002350D01*
X009864Y002650D02*
X009939Y002725D01*
X010089Y002725D01*
X010164Y002650D01*
X010324Y002650D02*
X010324Y002350D01*
X010399Y002275D01*
X010549Y002275D01*
X010624Y002350D01*
X010785Y002275D02*
X010785Y002725D01*
X011010Y002725D01*
X011085Y002650D01*
X011085Y002500D01*
X011010Y002425D01*
X010785Y002425D01*
X010624Y002650D02*
X010549Y002725D01*
X010399Y002725D01*
X010324Y002650D01*
X014245Y007775D02*
X014395Y007775D01*
X014320Y007775D02*
X014320Y008225D01*
X014245Y008225D02*
X014395Y008225D01*
X014552Y008225D02*
X014702Y008075D01*
X014852Y008225D01*
X014852Y007775D01*
X015012Y007850D02*
X015087Y007775D01*
X015238Y007775D01*
X015313Y007850D01*
X015313Y008225D01*
X015012Y008225D02*
X015012Y007850D01*
X014552Y007775D02*
X014552Y008225D01*
X015215Y009745D02*
X015440Y009745D01*
X015515Y009820D01*
X015515Y010120D01*
X015440Y010195D01*
X015215Y010195D01*
X015215Y009745D01*
X015675Y009820D02*
X015675Y009895D01*
X015750Y009970D01*
X015901Y009970D01*
X015976Y009895D01*
X015976Y009820D01*
X015901Y009745D01*
X015750Y009745D01*
X015675Y009820D01*
X015750Y009970D02*
X015675Y010045D01*
X015675Y010120D01*
X015750Y010195D01*
X015901Y010195D01*
X015976Y010120D01*
X015976Y010045D01*
X015901Y009970D01*
X016136Y009970D02*
X016436Y009970D01*
X016596Y009895D02*
X016821Y009895D01*
X016896Y009970D01*
X016896Y010120D01*
X016821Y010195D01*
X016596Y010195D01*
X016596Y009745D01*
X016361Y011245D02*
X016211Y011245D01*
X016136Y011320D01*
X016436Y011620D01*
X016436Y011320D01*
X016361Y011245D01*
X016136Y011320D02*
X016136Y011620D01*
X016211Y011695D01*
X016361Y011695D01*
X016436Y011620D01*
X016596Y011470D02*
X016896Y011470D01*
X017057Y011395D02*
X017282Y011395D01*
X017357Y011470D01*
X017357Y011620D01*
X017282Y011695D01*
X017057Y011695D01*
X017057Y011245D01*
X015976Y011245D02*
X015675Y011245D01*
X015826Y011245D02*
X015826Y011695D01*
X015675Y011545D01*
X015515Y011620D02*
X015515Y011470D01*
X015440Y011395D01*
X015215Y011395D01*
X015215Y011245D02*
X015215Y011695D01*
X015440Y011695D01*
X015515Y011620D01*
X015750Y012745D02*
X015901Y012745D01*
X015976Y012820D01*
X015976Y013120D01*
X015901Y013195D01*
X015750Y013195D01*
X015675Y013120D01*
X015675Y013045D01*
X015750Y012970D01*
X015976Y012970D01*
X016136Y012970D02*
X016436Y012970D01*
X016596Y012895D02*
X016821Y012895D01*
X016896Y012970D01*
X016896Y013120D01*
X016821Y013195D01*
X016596Y013195D01*
X016596Y012745D01*
X015750Y012745D02*
X015675Y012820D01*
X015515Y012970D02*
X015440Y012895D01*
X015215Y012895D01*
X015215Y012745D02*
X015215Y013195D01*
X015440Y013195D01*
X015515Y013120D01*
X015515Y012970D01*
X015750Y014245D02*
X015901Y014245D01*
X015976Y014320D01*
X015976Y014395D01*
X015901Y014470D01*
X015675Y014470D01*
X015675Y014320D01*
X015750Y014245D01*
X015675Y014470D02*
X015826Y014620D01*
X015976Y014695D01*
X016136Y014470D02*
X016436Y014470D01*
X016596Y014395D02*
X016821Y014395D01*
X016896Y014470D01*
X016896Y014620D01*
X016821Y014695D01*
X016596Y014695D01*
X016596Y014245D01*
X015515Y014470D02*
X015440Y014395D01*
X015215Y014395D01*
X015215Y014245D02*
X015215Y014695D01*
X015440Y014695D01*
X015515Y014620D01*
X015515Y014470D01*
X015750Y015745D02*
X015675Y015820D01*
X015750Y015745D02*
X015901Y015745D01*
X015976Y015820D01*
X015976Y015970D01*
X015901Y016045D01*
X015826Y016045D01*
X015675Y015970D01*
X015675Y016195D01*
X015976Y016195D01*
X016136Y015970D02*
X016436Y015970D01*
X016596Y015895D02*
X016821Y015895D01*
X016896Y015970D01*
X016896Y016120D01*
X016821Y016195D01*
X016596Y016195D01*
X016596Y015745D01*
X015515Y015970D02*
X015440Y015895D01*
X015215Y015895D01*
X015215Y015745D02*
X015215Y016195D01*
X015440Y016195D01*
X015515Y016120D01*
X015515Y015970D01*
X015220Y016950D02*
X020120Y016950D01*
X020120Y017300D01*
X020720Y017300D01*
X020720Y016950D01*
X021470Y016950D01*
X021470Y021050D01*
X020720Y021050D01*
X020720Y020700D01*
X020120Y020700D01*
X020120Y021050D01*
X015220Y021050D01*
X015220Y016950D01*
X015215Y017245D02*
X015215Y017695D01*
X015440Y017695D01*
X015515Y017620D01*
X015515Y017470D01*
X015440Y017395D01*
X015215Y017395D01*
X015675Y017320D02*
X015750Y017245D01*
X015901Y017245D01*
X015976Y017320D01*
X015976Y017395D01*
X015901Y017470D01*
X015826Y017470D01*
X015901Y017470D02*
X015976Y017545D01*
X015976Y017620D01*
X015901Y017695D01*
X015750Y017695D01*
X015675Y017620D01*
X016136Y017470D02*
X016436Y017470D01*
X016596Y017395D02*
X016821Y017395D01*
X016896Y017470D01*
X016896Y017620D01*
X016821Y017695D01*
X016596Y017695D01*
X016596Y017245D01*
X018845Y018494D02*
X018958Y018608D01*
X019185Y018608D01*
X019185Y018740D02*
X019185Y018967D01*
X019185Y018853D02*
X018845Y018853D01*
X018958Y018740D01*
X019015Y018608D02*
X019015Y018381D01*
X018958Y018381D02*
X019185Y018381D01*
X018958Y018381D02*
X018845Y018494D01*
X018845Y019099D02*
X018845Y019326D01*
X018901Y019326D01*
X019128Y019099D01*
X019185Y019099D01*
X019298Y019458D02*
X019185Y019572D01*
X019185Y019515D01*
X019128Y019515D01*
X019128Y019572D01*
X019185Y019572D01*
X019128Y019698D02*
X019185Y019754D01*
X019185Y019868D01*
X019128Y019925D01*
X019015Y019925D01*
X018958Y019868D01*
X018958Y019811D01*
X019015Y019698D01*
X018845Y019698D01*
X018845Y019925D01*
X018958Y020057D02*
X018958Y020114D01*
X019015Y020170D01*
X018958Y020227D01*
X019015Y020284D01*
X019185Y020284D01*
X019185Y020170D02*
X019015Y020170D01*
X018958Y020057D02*
X019185Y020057D01*
X019185Y020416D02*
X018958Y020416D01*
X018958Y020473D01*
X019015Y020529D01*
X018958Y020586D01*
X019015Y020643D01*
X019185Y020643D01*
X019185Y020529D02*
X019015Y020529D01*
X019410Y019000D02*
X019412Y019053D01*
X019418Y019106D01*
X019428Y019158D01*
X019442Y019209D01*
X019459Y019259D01*
X019480Y019308D01*
X019505Y019355D01*
X019533Y019400D01*
X019565Y019443D01*
X019600Y019483D01*
X019637Y019520D01*
X019677Y019555D01*
X019720Y019587D01*
X019765Y019615D01*
X019812Y019640D01*
X019861Y019661D01*
X019911Y019678D01*
X019962Y019692D01*
X020014Y019702D01*
X020067Y019708D01*
X020120Y019710D01*
X020173Y019708D01*
X020226Y019702D01*
X020278Y019692D01*
X020329Y019678D01*
X020379Y019661D01*
X020428Y019640D01*
X020475Y019615D01*
X020520Y019587D01*
X020563Y019555D01*
X020603Y019520D01*
X020640Y019483D01*
X020675Y019443D01*
X020707Y019400D01*
X020735Y019355D01*
X020760Y019308D01*
X020781Y019259D01*
X020798Y019209D01*
X020812Y019158D01*
X020822Y019106D01*
X020828Y019053D01*
X020830Y019000D01*
X020828Y018947D01*
X020822Y018894D01*
X020812Y018842D01*
X020798Y018791D01*
X020781Y018741D01*
X020760Y018692D01*
X020735Y018645D01*
X020707Y018600D01*
X020675Y018557D01*
X020640Y018517D01*
X020603Y018480D01*
X020563Y018445D01*
X020520Y018413D01*
X020475Y018385D01*
X020428Y018360D01*
X020379Y018339D01*
X020329Y018322D01*
X020278Y018308D01*
X020226Y018298D01*
X020173Y018292D01*
X020120Y018290D01*
X020067Y018292D01*
X020014Y018298D01*
X019962Y018308D01*
X019911Y018322D01*
X019861Y018339D01*
X019812Y018360D01*
X019765Y018385D01*
X019720Y018413D01*
X019677Y018445D01*
X019637Y018480D01*
X019600Y018517D01*
X019565Y018557D01*
X019533Y018600D01*
X019505Y018645D01*
X019480Y018692D01*
X019459Y018741D01*
X019442Y018791D01*
X019428Y018842D01*
X019418Y018894D01*
X019412Y018947D01*
X019410Y019000D01*
D17*
X003820Y011300D02*
X003820Y011000D01*
X003820Y010700D01*
X003620Y010700D02*
X003620Y011000D01*
X003620Y011300D01*
X003620Y009300D02*
X003620Y009000D01*
X003620Y008700D01*
X003820Y008700D02*
X003820Y009000D01*
X003820Y009300D01*
X001344Y007794D02*
X001297Y007821D01*
X001252Y007851D01*
X001209Y007884D01*
X001169Y007920D01*
X001131Y007959D01*
X001096Y008000D01*
X001063Y008043D01*
X001034Y008088D01*
X001008Y008136D01*
X000985Y008185D01*
X000965Y008235D01*
X000949Y008286D01*
X000936Y008339D01*
X000927Y008392D01*
X000922Y008446D01*
X000920Y008500D01*
X002117Y007805D02*
X002165Y007835D01*
X002210Y007868D01*
X002253Y007904D01*
X002294Y007942D01*
X002331Y007984D01*
X002366Y008028D01*
X002397Y008074D01*
X002426Y008123D01*
X002450Y008173D01*
X002471Y008225D01*
X002489Y008279D01*
X002502Y008333D01*
X002512Y008388D01*
X002518Y008444D01*
X002520Y008500D01*
X002518Y008553D01*
X002513Y008607D01*
X002504Y008659D01*
X002492Y008711D01*
X002476Y008762D01*
X002457Y008812D01*
X002434Y008861D01*
X002408Y008908D01*
X002380Y008953D01*
X002348Y008996D01*
X002314Y009036D01*
X002276Y009075D01*
X002237Y009111D01*
X001208Y009115D02*
X001168Y009079D01*
X001130Y009040D01*
X001095Y008999D01*
X001063Y008956D01*
X001033Y008911D01*
X001007Y008864D01*
X000985Y008815D01*
X000965Y008764D01*
X000949Y008713D01*
X000936Y008661D01*
X000927Y008607D01*
X000922Y008554D01*
X000920Y008500D01*
X002520Y012000D02*
X002518Y012054D01*
X002513Y012108D01*
X002504Y012161D01*
X002491Y012214D01*
X002475Y012265D01*
X002455Y012315D01*
X002432Y012364D01*
X002406Y012412D01*
X002377Y012457D01*
X002344Y012500D01*
X002309Y012541D01*
X002271Y012580D01*
X002231Y012616D01*
X002188Y012649D01*
X002143Y012679D01*
X002096Y012706D01*
X001323Y012695D02*
X001275Y012665D01*
X001230Y012632D01*
X001187Y012596D01*
X001146Y012558D01*
X001109Y012516D01*
X001074Y012472D01*
X001043Y012426D01*
X001014Y012377D01*
X000990Y012327D01*
X000969Y012275D01*
X000951Y012221D01*
X000938Y012167D01*
X000928Y012112D01*
X000922Y012056D01*
X000920Y012000D01*
X000922Y011947D01*
X000927Y011893D01*
X000936Y011841D01*
X000948Y011789D01*
X000964Y011738D01*
X000983Y011688D01*
X001006Y011639D01*
X001032Y011592D01*
X001060Y011547D01*
X001092Y011504D01*
X001126Y011464D01*
X001164Y011425D01*
X001203Y011389D01*
X002232Y011385D02*
X002272Y011421D01*
X002310Y011460D01*
X002345Y011501D01*
X002377Y011544D01*
X002407Y011589D01*
X002433Y011636D01*
X002455Y011685D01*
X002475Y011736D01*
X002491Y011787D01*
X002504Y011839D01*
X002513Y011893D01*
X002518Y011946D01*
X002520Y012000D01*
D18*
X002970Y016500D02*
X003120Y016500D01*
X006320Y016500D02*
X006470Y016500D01*
X006470Y007000D02*
X006320Y007000D01*
X003120Y007000D02*
X002970Y007000D01*
D19*
X002800Y007000D03*
X003300Y007000D03*
X006140Y007000D03*
X006640Y007000D03*
X006640Y016500D03*
X006140Y016500D03*
X003300Y016500D03*
X002800Y016500D03*
D20*
X003220Y002500D02*
X003220Y000250D01*
X002220Y000250D02*
X002220Y002500D01*
X004220Y002500D02*
X004220Y000250D01*
X005220Y000250D02*
X005220Y002500D01*
X016220Y003000D02*
X018470Y003000D01*
X018470Y004000D02*
X016220Y004000D01*
X016220Y005000D02*
X018470Y005000D01*
X018470Y006000D02*
X016220Y006000D01*
X016220Y007000D02*
X018470Y007000D01*
D21*
X016070Y007000D03*
X016070Y006000D03*
X016070Y005000D03*
X016070Y004000D03*
X016070Y003000D03*
D22*
X014770Y003000D03*
X014770Y004000D03*
X014770Y005000D03*
X014770Y006000D03*
X014770Y007000D03*
D23*
X005220Y002650D03*
X004220Y002650D03*
X003220Y002650D03*
X002220Y002650D03*
D24*
X002220Y003950D03*
X003220Y003950D03*
X004220Y003950D03*
X005220Y003950D03*
D25*
X005220Y005000D03*
X004220Y005000D03*
X003220Y005000D03*
X002220Y005000D03*
D26*
X015470Y017200D02*
X018720Y017200D01*
X018720Y020800D01*
X015470Y020800D01*
X015470Y017200D01*
D27*
X013995Y018000D03*
X013995Y019000D03*
X013995Y020000D03*
D28*
X014670Y020000D03*
X014670Y019000D03*
X014670Y018000D03*
M02*
