%
M48
M72
T01C0.0240
T02C0.0320
T03C0.0400
T04C0.0440
T05C0.1260
%
T01
X5220Y15000
X5220Y12500
X9220Y13500
X10220Y10500
X13220Y8000
X12720Y6000
X15720Y5500
X16720Y6000
X16220Y7000
X16720Y7500
X18220Y7500
X17720Y5000
X18220Y4500
X17220Y4000
X16720Y3500
X13720Y10000
X12720Y16500
X10220Y20000
X9220Y19500
X8720Y20000
X9220Y20500
X6220Y19500
X17220Y17500
X4220Y7000
X2720Y4000
X6220Y3500
X7220Y5000
T02
X2220Y7000
X1720Y8000
X1720Y9000
X3220Y9000
X4220Y9000
X4220Y11000
X3220Y11000
X1720Y11500
X1720Y12500
X2720Y14000
X3720Y14000
X4720Y14000
X5720Y14000
X7220Y16500
X8220Y16500
X8220Y15500
X8220Y14500
X8220Y13500
X8220Y12500
X8220Y11500
X8220Y10500
X8220Y9500
X8220Y8500
X8220Y7500
X8220Y6500
X7220Y7000
X6220Y9050
X6220Y10950
X11220Y10500
X11220Y11500
X11220Y12500
X11220Y13500
X11220Y14500
X11220Y15500
X11220Y16500
X11220Y17500
X11220Y18500
X11220Y19500
X8220Y19500
X8220Y18500
X8220Y17500
X2220Y16500
X11220Y9500
X11220Y8500
X11220Y7500
X11220Y6500
T03
X3720Y19000
X4720Y19000
X4720Y18000
X3720Y18000
X5720Y18000
X5720Y19000
X6720Y19000
X6720Y18000
X15720Y16500
X16720Y16500
X17720Y16500
X17720Y15000
X16720Y15000
X15720Y15000
X15720Y13500
X16720Y13500
X17720Y13500
X17720Y12000
X16720Y12000
X15720Y12000
X15720Y10500
X16720Y10500
X17720Y10500
X17720Y9000
X16720Y9000
X15720Y9000
X14220Y7000
X14220Y6000
X14220Y5000
X14220Y4000
X14220Y3000
X10720Y3500
X9720Y3500
X9720Y4500
X10720Y4500
X8720Y4500
X8720Y3500
X5220Y4500
X5220Y5500
X4220Y5500
X4220Y4500
X3220Y4500
X3220Y5500
X2220Y5500
X2220Y4500
T04
X13220Y20000
X13220Y19000
X13220Y18000
T05
X1220Y3000
X1220Y20500
X18720Y20500
X18720Y3000
M30
